# xmcd CD database file
# Generated: Sat Sep 13 19:43:00 2003 by KSCD
# 
# Track frame offsets:
#       150
#       21539
#       33520
#       46089
#       61618
#       73346
#       93487
#       107558
#       135484
#
# Disc length: 1982 seconds
#
# Revision: 1
# Processed by: cddbd v1.4PL0 Copyright (c) Steve Scherf et al.
# Submitted via: Kscd 1.3.3
#
DISCID=7607bc09
DTITLE=Deborah Steel - If This Walls Could Talk
DYEAR=1900
DGENRE=
TTITLE0=Another Lonly Woman
TTITLE1=Parkin' Spot
TTITLE2=Before You Fall Asleep
TTITLE3=I Don't Like You
TTITLE4=You'll Have To Beg
TTITLE5=Take Me Down Easy
TTITLE6=The Bigger They Are
TTITLE7=If This Walls Could Talk
TTITLE8=
EXTD=
EXTT0=
EXTT1=
EXTT2=
EXTT3=
EXTT4=
EXTT5=
EXTT6=
EXTT7=
EXTT8=
PLAYORDER=
